# xmcd CD database file
#
# Track frame offsets:
#	150
#	24172
#	49737
#	73192
#	90025
#	113307
#	132610
#	157712
#	185632
#	202405
#	229640
#	256080
#	283627
#	301075
#
# Disc length: 4244 seconds
#
# Revision: 5
# Processed by: cddbd v1.5PL3 Copyright (c) Steve Scherf et al.
# Submitted via: CDex 1.50Beta5
#
DISCID=af10920e
DTITLE=Speed - Carry On my way
DYEAR=1900
DGENRE=New Age
TTITLE0=Carry On my way
TTITLE1=蒼いリグレット
TTITLE2=Long Way Home(Album Edit)
TTITLE3=Deep Blue&Truth
TTITLE4=Luv Blanket
TTITLE5=Breakin' out to the morning
TTITLE6=Snow Kiss
TTITLE7=You are the moonlight
TTITLE8=Lookin' for Love
TTITLE9=Precious Time
TTITLE10=Two of us
TTITLE11=Eternity
TTITLE12=Confusion
TTITLE13=Don't be afraid
EXTD=
EXTT0=
EXTT1=
EXTT2=
EXTT3=
EXTT4=
EXTT5=
EXTT6=
EXTT7=
EXTT8=
EXTT9=
EXTT10=
EXTT11=
EXTT12=
EXTT13=
PLAYORDER=
